HIERARCHY
ROOT pelvis
{
	OFFSET 0.000000 0.000000 0.000000
	CHANNELS 6 Xposition Yposition Zposition Zrotation Xrotation Yrotation
	JOINT lfemur
	{
		OFFSET 11.446000 0.000000 0.000000
		CHANNELS 3 Zrotation Xrotation Yrotation
		JOINT ltibia
		{
			OFFSET 0.000000 -42.030400 0.000000
			CHANNELS 3 Zrotation Xrotation Yrotation
			JOINT lfoot
			{
				OFFSET 0.000000 -39.930200 0.000000
				CHANNELS 3 Zrotation Xrotation Yrotation
				JOINT ltoes
				{
					OFFSET 0.000000 0.000000 11.775800
					CHANNELS 3 Zrotation Xrotation Yrotation
					End Site
					{
					    OFFSET 0.000000 0.000000 5.000000
					}
				}
			}
		}
	}
	JOINT rfemur
	{
		OFFSET -11.446000 0.000000 0.000000
		CHANNELS 3 Zrotation Xrotation Yrotation
		JOINT rtibia
		{
			OFFSET 0.000000 -42.030400 0.000000
			CHANNELS 3 Zrotation Xrotation Yrotation
			JOINT rfoot
			{
				OFFSET 0.000000 -39.930200 0.000000
				CHANNELS 3 Zrotation Xrotation Yrotation
				JOINT rtoes
				{
					OFFSET 0.000000 0.000000 11.775800
					CHANNELS 3 Zrotation Xrotation Yrotation
					End Site
					{
					    OFFSET 0.000000 0.000000 5.000000
					}
				}
			}
		}
	}
	JOINT thorax
	{
		OFFSET 0.000000 11.255600 -5.000000
		CHANNELS 3 Zrotation Xrotation Yrotation
		JOINT head
		{
			OFFSET 0.000000 43.799300 0.000000
			CHANNELS 3 Zrotation Xrotation Yrotation
			End Site
			{
			    OFFSET 0.000000 5.000000 0.000000
			}
		}
		JOINT lclavicle
		{
			OFFSET 0.000000 39.863000 0.000000
			CHANNELS 3 Zrotation Xrotation Yrotation
			JOINT lhumerus
			{
				OFFSET 17.380600 4.958300 0.000000
				CHANNELS 3 Zrotation Xrotation Yrotation
				JOINT lradius
				{
					OFFSET 0.000000 -27.561300 0.000000
					CHANNELS 3 Zrotation Xrotation Yrotation
					JOINT lhand
					{
						OFFSET 0.000000 -26.933000 0.000000
						CHANNELS 3 Zrotation Xrotation Yrotation
						End Site
						{
						    OFFSET 0.000000 -5.000000 0.000000
						}
					}
				}
			}
		}
		JOINT rclavicle
		{
			OFFSET 0.000000 39.863000 0.000000
			CHANNELS 3 Zrotation Xrotation Yrotation
			JOINT rhumerus
			{
				OFFSET -17.380600 4.958300 0.000000
				CHANNELS 3 Zrotation Xrotation Yrotation
				JOINT rradius
				{
					OFFSET 0.000000 -27.561300 0.000000
					CHANNELS 3 Zrotation Xrotation Yrotation
					JOINT rhand
					{
						OFFSET 0.000000 -26.933000 0.000000
						CHANNELS 3 Zrotation Xrotation Yrotation
						End Site
						{
						    OFFSET 0.000000 -5.000000 0.000000
						}
					}
				}
			}
		}
	}
}
MOTION
Frames:	13
Frame Time:	0.0333333
8.88538 85.8494 -153.677 3.92992 -2.3023 -1.59828 -9.54019 -7.31378 -2.48246 0.137076 28.4296 -0.320761 1.79156 -4.26221 4.91533 1.47849e-016 -5 -2.99316e-016 -3.72849 -22.9256 -5.64877 -2.00156 71.383 1.87853 -1.06925 -2.66265 -5.79914 -3.04142e-015 -5 1.59635e-015 -2.55407 9.07492 -1.28871 0.631741 -1.99476 -4.55412 9.93923e-017 0 -0 11.4589 -3.29573 -17.9824 14.0228 -21.335 5.78312 -0.331517 -2.28223 -16.4741 9.93923e-017 0 -0 -9.6167 -3.84371 12.9144 -18.2399 -26.408 -8.26654 0.0605579 -0.975326 6.96035 
8.93143 85.3282 -149.49 4.47823 -1.64407 -1.44359 -10.2687 -5.37137 -2.15294 0.143236 28.8676 -0.277984 2.50085 -6.92279 5.21524 5.7131e-017 -5 1.40304e-017 -3.94543 -28.6804 -5.26021 -1.31189 65.3419 1.23455 -1.33736 -3.99533 -7.64362 7.95139e-016 -5 -0 -3.33163 9.13671 -1.66532 1.15085 -2.22081 -4.87488 1.49089e-016 -1.59028e-015 -7.95139e-016 12.9215 -6.00117 -20.4227 15.18 -22.7919 6.43749 -0.29105 -2.13995 -15.421 1.49089e-016 -1.59028e-015 -7.95139e-016 -9.05504 -2.14989 13.5399 -18.1004 -26.2506 -8.18024 0.047626 -0.862525 6.1527 
9.05472 85.1653 -144.994 5.45753 -1.28878 -0.818994 -11.2831 -1.21096 -1.71471 0.11844 26.041 -0.260975 2.63676 -7.99452 4.96226 -3.5533e-016 -5 1.99544e-016 -4.84228 -31.9421 -4.64382 -0.725983 55.6483 0.720336 -1.37141 -2.94835 -9.45624 5.16876e-016 -5 -3.1927e-015 -4.46231 9.11394 -2.59349 1.62332 -2.62103 -5.00455 9.93923e-017 3.18055e-015 -0 14.4467 -8.10945 -23.0893 16.7083 -24.64 7.33389 -0.209964 -1.82114 -13.0777 9.93923e-017 3.18055e-015 -0 -8.54164 -0.762109 14.1722 -17.6647 -25.7545 -7.91252 0.036361 -0.751039 5.35462 
9.03597 85.0587 -140.563 6.03181 -0.526783 0.379105 -11.5267 3.12302 -1.54685 0.0920396 22.3611 -0.323805 2.04453 -8.52063 3.90555 1.16784e-016 -5 1.99544e-016 -5.51011 -33.5011 -3.37419 -0.342883 42.8339 0.421922 -1.11221 -0.428193 -11.0437 3.97569e-016 -5 -0 -5.11569 8.59615 -4.11045 2.40037 -2.47983 -4.75714 -9.93923e-017 -1.59028e-015 7.95139e-016 15.9007 -9.50697 -25.0673 18.4474 -26.6391 8.39507 -0.183906 -1.7046 -12.2285 -9.93923e-017 -1.59028e-015 7.95139e-016 -7.75202 0.946651 14.0393 -17.2598 -25.2873 -7.6662 0.0403789 -0.792049 5.64897 
8.90579 84.5395 -136.076 6.67698 0.336628 1.18871 -11.8063 7.14439 -0.984208 0.0741348 18.5639 -0.254478 2.44333 -8.82903 2.82491 2.80786e-016 -5 -1.99544e-016 -6.14791 -33.5624 -2.25831 -0.129141 28.4858 0.256518 -0.766818 2.27166 -12.3361 3.97389e-017 -5 1.59635e-015 -6.08216 7.96125 -5.09934 3.12028 -2.11293 -4.96145 -9.93923e-017 1.59028e-015 7.95139e-016 17.5772 -11.1621 -27.0188 19.693 -28.004 9.18019 -0.141323 -1.49478 -10.7039 -9.93923e-017 1.59028e-015 7.95139e-016 -6.73925 2.57414 13.3495 -17.152 -25.1622 -7.60114 0.0300061 -0.748106 5.3346 
8.77186 84.1141 -131.537 6.89224 0.819826 3.08381 -11.1879 10.5984 -1.31902 0.0637025 16.7564 -0.28531 1.8065 -9.17734 0.692343 -1.4661e-016 -5 5.98632e-016 -7.01185 -31.7136 -0.321989 -0.0298439 15.4699 0.181254 -0.756383 2.32607 -15.7404 6.56007e-016 -5 -1.59635e-015 -6.2874 7.43925 -6.8177 3.54476 -1.57258 -5.88343 0 0 -0 18.7331 -12.4858 -28.4676 20.5169 -28.877 9.71043 -0.132664 -1.44897 -10.3715 0 0 -0 -5.88601 4.55172 11.4862 -16.817 -24.7697 -7.39948 0.042863 -0.817638 5.83083 
8.58957 83.737 -127.188 6.71696 0.930835 4.25767 -10.2377 14.0857 -2.32363 0.0584316 15.3624 -0.210394 2.19526 -8.73047 -0.587997 8.03215e-016 -5 -4.9886e-017 -6.79921 -31.6279 -0.106955 -0.00958175 13.0436 0.177447 -2.39187 2.35181 -16.9636 5.36701e-016 -5 1.59635e-015 -5.97241 7.54248 -7.69552 3.7673 -1.39815 -6.23208 2.20695e-032 -1.59028e-015 7.95139e-016 19.6362 -14.2818 -29.7941 20.7904 -29.1615 9.88831 -0.124539 -1.40358 -10.0432 2.20695e-032 -1.59028e-015 7.95139e-016 -5.06903 5.67659 9.53547 -16.2737 -24.1249 -7.07603 0.0282932 -0.659213 4.69882 
8.34747 83.5442 -122.795 6.62349 0.544805 4.23368 -9.75534 16.8938 -3.43039 0.063302 15.9178 -0.126395 3.14066 -7.40189 -0.695564 1.73914e-017 -5 1.99544e-016 -6.21227 -32.1777 -2.48667 -0.0307086 18.208 0.189822 -3.24591 4.27586 -13.0756 3.97569e-016 -5 -0 -5.85212 7.45346 -7.8713 4.06271 -0.40427 -5.86103 -0 0 3.97569e-016 20.1121 -14.7744 -29.8593 20.8421 -29.2148 9.9219 -0.139696 -1.48631 -10.6427 -0 0 3.97569e-016 -4.61402 6.83176 8.64339 -15.8938 -23.6674 -6.85253 0.0283943 -0.660623 4.70881 
7.94647 83.5689 -117.972 6.07805 0.0220319 4.3233 -8.67095 18.8999 -4.00036 0.0781114 18.4355 -0.0384 4.93673 -5.23863 -2.13585 -3.97569e-016 -5 -0 -4.68536 -31.559 -3.08004 -0.0649067 24.0412 0.0453842 -3.26841 4.98702 -8.24326 -1.98695e-017 -5 -7.98176e-016 -5.34867 6.92956 -7.94974 3.70569 0.614989 -6.11815 4.96962e-017 0 -3.97569e-016 20.1729 -14.3834 -29.7251 20.594 -28.9571 9.76038 -0.162528 -1.60321 -11.4904 4.96962e-017 0 -3.97569e-016 -4.29616 8.09234 7.05153 -15.1146 -22.7122 -6.4007 0.041761 -0.805824 5.74628 
7.17422 84.2865 -112.892 4.28537 -0.297392 3.93856 -6.23384 18.6741 -3.59693 0.11366 24.3314 -0.187169 7.20666 -1.08014 -4.65087 -5.86442e-016 -5 2.39453e-015 -2.0043 -27.5777 -0.136424 -0.0697265 20.6003 0.182174 -0.289566 10.3194 -5.38192 -3.45384e-016 -5 -3.99088e-016 -3.27166 6.12465 -7.98993 3.27587 1.79323 -5.39638 -4.96962e-017 -2.38542e-015 7.95139e-016 19.4459 -13.253 -28.6758 20.2531 -28.5998 9.53975 -0.189066 -1.72848 -12.4022 -4.96962e-017 -2.38542e-015 7.95139e-016 -4.56009 8.44121 4.95552 -13.8893 -21.1647 -5.7097 0.0819757 -1.13816 8.12738 
6.47995 84.8704 -107.958 2.11793 -0.94851 2.48404 -3.82142 15.4592 -2.0931 0.233424 36.1123 -0.695695 9.85632 6.50273 -7.06639 -1.59028e-015 -5 -0 1.42419 -24.9943 -0.237572 -0.084882 22.0409 0.187652 -0.677341 11.5518 -2.83991 -3.31101e-016 -5 4.9886e-017 -0.497245 6.37566 -7.26611 2.43098 1.74062 -4.75495 1.98785e-016 0 -7.95139e-016 18.4504 -12.1129 -27.4752 20.159 -28.5006 9.47907 -0.172362 -1.65085 -11.8368 1.98785e-016 0 -7.95139e-016 -5.2876 7.83704 3.84335 -13.2503 -20.3353 -5.35911 0.127335 -1.41979 10.1575 
6.02974 85.7844 -103.112 1.50461 -1.84679 1.79024 -2.444 10.8352 -0.80264 0.420354 45.8925 -0.511774 6.4971 18.6534 -9.69556 2.2115e-015 -5 -1.99544e-015 2.81233 -21.4454 -0.515789 -0.0882644 22.8786 0.186796 -0.9466 10.9084 -1.50024 -1.35577e-016 -5 1.24715e-017 0.130505 7.13612 -6.86565 2.58527 1.01493 -4.22328 0 0 -7.95139e-016 17.7608 -10.5088 -26.8571 20.5957 -28.9593 9.76155 -0.157743 -1.57956 -11.3183 0 0 -7.95139e-016 -5.4034 7.24437 3.08118 -13.118 -20.1618 -5.28737 0.152788 -1.55513 11.1383 
5.28783 86.6588 -98.5341 -0.262751 -2.48836 0.960195 0.241753 5.45707 0.744072 0.76476 56.4312 -0.335465 6.25612 27.6615 -9.07751 2.17393e-018 -5 2.4943e-017 5.65273 -16.517 0.612436 -0.0729828 20.3902 0.179967 -0.962209 10.4308 -1.39591 -9.35531e-016 -5 9.9772e-017 1.9054 8.14721 -5.47567 3.03937 -0.179409 -4.79692 -9.93923e-017 -7.95139e-016 -7.95139e-016 16.9962 -10.5847 -27.3555 20.0645 -28.4006 9.41822 -0.148348 -1.53147 -10.9702 -9.93923e-017 -7.95139e-016 -7.95139e-016 -5.83231 5.88453 5.19856 -13.6093 -20.8035 -5.55517 0.0986095 -1.24833 8.92138 
